<?xml version="1.0" encoding="UTF-8" standalone="no"?>
<!-- Created with Inkscape (http://www.inkscape.org/) -->

<svg
   version="1.1"
   id="svg2"
   xml:space="preserve"
   width="210.32642"
   height="210.32642"
   viewBox="0 0 210.32641 210.32641"
   sodipodi:docname="arrow.svg"
   inkscape:version="1.1.2 (1:1.1+202202050950+0a00cf5339)"
   xmlns:inkscape="http://www.inkscape.org/namespaces/inkscape"
   xmlns:sodipodi="http://sodipodi.sourceforge.net/DTD/sodipodi-0.dtd"
   xmlns="http://www.w3.org/2000/svg"
   xmlns:svg="http://www.w3.org/2000/svg"><defs
     id="defs6" /><sodipodi:namedview
     id="namedview4"
     pagecolor="#ffffff"
     bordercolor="#666666"
     borderopacity="1.0"
     inkscape:pageshadow="2"
     inkscape:pageopacity="0.0"
     inkscape:pagecheckerboard="true"
     showgrid="false"
     fit-margin-top="0"
     fit-margin-left="0"
     fit-margin-right="0"
     fit-margin-bottom="0"
     inkscape:zoom="2.4979373"
     inkscape:cx="102.08423"
     inkscape:cy="147.32155"
     inkscape:window-width="1920"
     inkscape:window-height="1023"
     inkscape:window-x="0"
     inkscape:window-y="0"
     inkscape:window-maximized="1"
     inkscape:current-layer="layer2" /><g
     inkscape:groupmode="layer"
     id="layer2"
     inkscape:label="Layer 2"
     style="display:inline"
     transform="translate(47.729774,-0.03207365)"><rect
       style="display:inline;fill:none;stroke-width:1"
       id="rect852"
       width="210.32642"
       height="210.32642"
       x="-47.729774"
       y="0.032073647" /></g><g
     inkscape:groupmode="layer"
     id="layer1"
     inkscape:label="Layer 1"
     style="display:inline"
     transform="matrix(1.3333333,0,0,-1.3333333,-533.77962,1490.2913)"><g
       id="g2427"
       transform="rotate(90,481.24075,1039.3238)"><path
         d="m 5315.65,10428.6 -401.08,401.1 c -19.53,19.5 -51.18,19.5 -70.71,0 -19.53,-19.5 -19.53,-51.2 0,-70.7 l 165.56,-165.6 H 4238.4 c -16.57,0 -30,-13.4 -30,-30 0,-16.6 13.43,-30 30,-30 h 831.02 l 90.17,-90.2 H 4078.22 c -27.61,0 -50,-22.3 -50,-50 0,-27.6 22.39,-50 50,-50 h 1081.37 l -90.17,-90.1 H 4238.4 c -16.57,0 -30,-13.5 -30,-30 0,-16.6 13.43,-30 30,-30 h 771.03 l -165.57,-165.6 c -19.53,-19.5 -19.53,-51.18 0,-70.7 9.76,-9.76 22.56,-14.65 35.35,-14.65 12.8,0 25.6,4.89 35.36,14.65 l 401.08,401.1 c 19.53,19.5 19.53,51.2 0,70.7"
         style="fill:#272525;fill-opacity:1;fill-rule:nonzero;stroke:none"
         id="path22"
         transform="scale(0.1)" /><path
         d="m 5581.94,10428.6 -321.68,321.7 c -19.53,19.5 -51.18,19.5 -70.71,0 -19.52,-19.5 -19.52,-51.2 0,-70.7 l 286.33,-286.4 -286.33,-286.3 c -19.52,-19.5 -19.52,-51.2 0,-70.7 9.77,-9.8 22.56,-14.6 35.36,-14.6 12.8,0 25.59,4.8 35.35,14.6 l 321.68,321.7 c 19.54,19.5 19.54,51.2 0,70.7"
         style="fill:#272525;fill-opacity:1;fill-rule:nonzero;stroke:none"
         id="path24"
         transform="scale(0.1)" /></g></g></svg>
